<svg xmlns="http://www.w3.org/2000/svg" xml:space="preserve" id="prefix__Layer_1" x="0" y="0" enable-background="new 0 0 153 34" version="1.1" viewBox="0 0 153 34"><g id="prefix__Price"><g id="prefix__Pricing-04" transform="translate(-136 -19)"><g id="prefix__Header"><g id="prefix__sevdesk-logo" transform="translate(136 19)"><path id="prefix__Shape" d="M1.5.6C2 .5 2.6.6 3.2.6h29.3c.5 0 1 .3 1.2.8.1.6.1 1.1.1 1.7v29.5c0 .5-.3 1.1-.8 1.2-.5.1-1 0-1.4 0H2.1c-.7.1-1.3-.6-1.2-1.2C.7 22.3.7 12.1.7 1.8c-.1-.5.3-1 .8-1.2z" style="fill:#d80f16"/><path id="prefix__Shape_1_" d="M140.3 5.5h2.4v13c2.4-2.5 4.8-4.9 7.2-7.4h2.6c-1.9 2-3.7 3.9-5.6 5.9 2 2.8 3.9 5.5 5.8 8.3h-2.5c-1.7-2.3-3.2-4.6-4.9-6.9-.9.9-1.8 1.7-2.7 2.6v4.4h-2.4c.1-6.7.1-13.3.1-19.9zm-34.1 10.1c0 2.4-.7 4.9-2.3 6.8-1.6 1.9-4.1 2.9-6.6 2.9h-7V5.9h7.2c2.4.1 4.9 1.1 6.5 3 1.5 1.9 2.2 4.3 2.2 6.7zm-3.1-3.6c-.7-1.9-2.5-3.4-4.5-3.8-1.9-.3-3.9-.1-5.9-.2v15.2c1.9-.1 3.9.1 5.8-.2 2-.4 3.7-1.9 4.5-3.9.9-2.2 1-4.8.1-7.1zm23.9.2c-1.2 1-1.6 2.8-1.1 4.2.3.9 1.1 1.4 1.9 1.7 1.5.6 3.1.9 4.7 1.3.7.2 1.5.5 1.8 1.2.4.8.1 1.9-.7 2.4-.9.7-2.2.7-3.3.6-1.6-.1-3.1-.9-4.3-1.9-.3.5-.7 1.1-1 1.6 1.8 1.4 4 2 6.3 2 1.7 0 3.7-.5 4.8-1.9s1.1-3.9-.5-4.9c-2-1.3-4.6-1.3-6.7-2.3-1-.4-1-1.7-.6-2.5.4-.7 1.1-1 1.8-1.1 1.9-.4 3.9.2 5.3 1.5.4-.5.7-1 1.1-1.5-1.4-1.2-3.3-1.8-5.1-1.9-1.6.1-3.2.5-4.4 1.5zm-78-.9c-1.3.3-2.6 1.2-3 2.5-.4 1.2-.3 2.8.8 3.5 2.2 1.4 5 1.2 7.2 2.5 1.2.8 1.1 2.7.1 3.6-1.2 1-2.9 1.1-4.4.9-1.4-.2-2.8-.9-3.8-1.9-.2.3-.5.6-.7.9 1.7 1.7 4.2 2.3 6.5 2.1 1.3-.1 2.7-.5 3.6-1.5.9-.9 1.2-2.4.8-3.6-.3-.9-1.1-1.5-2-1.9-1.9-.8-4.1-1-6-1.8-1.1-.5-1.2-2-.7-3s1.6-1.4 2.7-1.5c1.8-.2 3.8.3 5 1.7.3-.2.5-.5.8-.7-1.7-1.9-4.5-2.4-6.9-1.8zm24.9 0c2 4.7 3.9 9.4 5.8 14h1.4c2-4.7 3.9-9.3 5.9-14h-1.3c-1.7 4.2-3.4 8.3-5.1 12.5-.3-.4-.4-.9-.7-1.4l-4.5-11.1h-1.5zm-1.2 7.5H60.4c.2 2.1 1.4 4.1 3.3 5 2.4 1.3 5.7.3 6.9-2.1l1.2.3c-1.6 3.3-6.1 4.3-9.2 2.6-2.7-1.5-4.1-4.8-3.5-7.8.4-1.9 1.5-3.7 3.2-4.8 2-1.3 4.7-1.3 6.8-.2 2.4 1.4 3.8 4.3 3.6 7zm-1.3-1c-.1-2-1.3-4-3.2-4.9-1.9-.9-4.3-.6-5.8.8-1.2 1-1.8 2.6-2 4.1 3.7-.1 7.3-.1 11 0zm51.8 1.3h-11.7c.1 1.7 1 3.3 2.5 4.1 2.1 1.3 5.1.5 6.2-1.7.7.2 1.4.3 2.1.6-1.8 3.6-7.1 4.5-10.3 2.3-2.7-1.9-3.7-5.7-2.6-8.7.6-1.6 1.7-3 3.2-3.8 2.7-1.6 6.6-1.1 8.7 1.3 1.5 1.5 2.1 3.7 1.9 5.9zm-2.2-1.8c-.1-1.5-.9-3-2.2-3.9-1.6-1.1-3.8-1.1-5.3.1-1.2.9-1.9 2.4-2 3.8h9.5z" style="fill:#0d0d0d"/><path id="prefix__Shape_2_" d="M23 7.9h3.5v19.4h-3.4c-.1-6.5-.1-13-.1-19.4zm-7.5 6.4v13.1H19V14.3h-3.5zm-7.4 6.5v6.5h3.5v-6.5H8.1z" style="fill:#fff"/></g></g></g></g></svg>